<svg width="64" height="64" viewBox="0 0 64 64" fill="none" xmlns="http://www.w3.org/2000/svg">
<g clip-path="url(#clip0_514_70584)">
<path fill-rule="evenodd" clip-rule="evenodd" d="M31.2854 10.6596C19.6797 11.2186 10.7754 20.6253 10.929 32.1645C11.0819 43.6549 20.3451 52.9181 31.8355 53.071C46.3371 53.264 56.7337 39.2379 52.3476 25.3978C49.4847 16.364 40.6854 10.2068 31.2854 10.6596ZM33.1306 16.502C34.8174 16.6232 36.5956 17.0539 37.9946 17.6801C38.0709 17.7142 38.1765 17.7605 38.2294 17.783C38.9579 18.0934 40.0438 18.725 40.864 19.3155C41.7839 19.9776 42.9263 21.04 43.5292 21.7939C43.577 21.8537 43.6929 21.9977 43.787 22.1139C44.6761 23.2133 45.4434 24.5265 46.0047 25.9094C46.5344 27.2145 46.9039 28.7077 47.0395 30.0906C47.052 30.2198 47.0669 30.3685 47.0724 30.4214C47.419 33.7837 46.3 37.8164 44.246 40.608C44.016 40.9206 43.9693 40.9825 43.8108 41.1839C41.7756 43.7709 38.7776 45.6896 35.5946 46.4421C35.074 46.5651 34.8607 46.6068 34.2934 46.6968C32.2218 47.0251 29.8451 46.8438 27.7512 46.1974C24.6793 45.2493 21.9286 43.2828 20.0668 40.704C19.9524 40.5455 19.8474 40.4015 19.8335 40.384C19.7192 40.2401 19.2451 39.4734 19.0351 39.0927C18.9064 38.8596 18.5174 38.0933 18.5174 38.0731C18.5174 38.0672 18.4846 37.9921 18.4447 37.9059C17.5862 36.0572 17.0925 33.6669 17.1213 31.4986C17.1277 31.0118 17.1644 30.3611 17.2045 30.0266C17.2479 29.6626 17.2662 29.525 17.3035 29.2815C17.674 26.8644 18.6726 24.4865 20.1476 22.5094C20.3412 22.2499 20.6077 21.9094 20.6507 21.8666C20.6566 21.8607 20.7478 21.7551 20.8532 21.632C21.8647 20.4507 23.1222 19.3993 24.5226 18.5636C25.0957 18.2217 25.5053 18.0107 26.208 17.696C28.2461 16.7828 30.8325 16.3368 33.1306 16.502ZM24.5014 21.6013C22.0122 22.0017 20.7569 24.7921 22.1289 26.8753C23.7069 29.2713 27.3784 28.8092 28.3174 26.0964C29.1519 23.6855 27.0363 21.1936 24.5014 21.6013Z" fill="#FBFBFB"/>
<path fill-rule="evenodd" clip-rule="evenodd" d="M30.8129 6.54914C30.4873 6.56476 30.2249 6.58191 29.984 6.60316C29.9254 6.60841 29.7046 6.62761 29.4934 6.64591C29.2822 6.66422 29.0565 6.68764 28.992 6.69801C28.9275 6.70838 28.817 6.7231 28.7466 6.73065C27.8479 6.82754 25.9219 7.2237 25.0134 7.49852C24.9194 7.52694 24.7323 7.58326 24.5974 7.62383C24.2469 7.72918 23.172 8.09398 23.0506 8.14876C23.0272 8.15938 22.9841 8.17462 22.9546 8.18281C22.9253 8.19087 22.863 8.21494 22.816 8.23606C22.769 8.2573 22.6058 8.32361 22.4534 8.38351C22.3008 8.44354 22.1472 8.50524 22.112 8.52073C22.0768 8.53634 21.868 8.62812 21.648 8.72489C20.8675 9.0678 19.8461 9.59068 19.136 10.0108C18.9286 10.1335 18.0749 10.6663 17.9626 10.7431C17.9217 10.7711 17.7843 10.8638 17.6577 10.949C17.1698 11.2773 16.555 11.7339 15.9989 12.181C15.6378 12.4712 15.5245 12.5666 15.2113 12.8438C15.1112 12.9325 14.9967 13.0332 14.9568 13.0678C14.7469 13.2497 14.5704 13.4197 14.005 13.984C13.6641 14.3242 13.3078 14.689 13.2131 14.7946C12.9239 15.1167 12.6877 15.3855 12.5759 15.5199C12.5173 15.5902 12.4531 15.667 12.4334 15.6905C11.9832 16.227 11.4619 16.9104 11.0824 17.4614C10.7594 17.9301 10.1334 18.9014 10.1334 18.9335C10.1334 18.9379 10.0822 19.0261 10.0196 19.1295C9.957 19.2328 9.87162 19.3797 9.83002 19.456C9.78842 19.5323 9.68986 19.7098 9.61101 19.8506C9.29255 20.4195 8.89293 21.2476 8.56052 22.0266C8.19572 22.8821 7.83847 23.8628 7.62817 24.5866C7.59745 24.6922 7.55188 24.8458 7.52679 24.928C7.43655 25.2246 7.25658 25.9207 7.16033 26.3466C6.99969 27.0573 6.90893 27.5362 6.81677 28.16C6.7986 28.2833 6.77402 28.4464 6.76237 28.5226C6.70298 28.9096 6.62618 29.6179 6.60161 30.0054C6.59418 30.1227 6.58433 30.2427 6.57959 30.272C6.54119 30.5142 6.52417 32.5678 6.55463 33.28C6.59764 34.2809 6.73421 35.4878 6.92289 36.5334C6.9714 36.8016 7.0057 36.9719 7.11885 37.504C7.39482 38.8014 7.97274 40.6435 8.45082 41.7494C8.46349 41.7787 8.48589 41.8315 8.50061 41.8667C8.51533 41.9019 8.53799 41.9547 8.55092 41.984C8.56385 42.0133 8.65255 42.2149 8.74791 42.432C8.99137 42.9865 9.51041 44.024 9.72033 44.3761C9.75975 44.4423 9.79201 44.5013 9.79201 44.5074C9.79201 44.5166 9.87175 44.6546 10.0373 44.932C10.049 44.9517 10.0934 45.0289 10.1358 45.1035C10.3136 45.4161 11.0591 46.5527 11.294 46.8694C11.3418 46.9339 11.4008 47.0157 11.4253 47.0513C11.4496 47.0867 11.4851 47.1347 11.5041 47.1579C11.5231 47.1811 11.6317 47.3241 11.7454 47.4757C12.5155 48.5026 13.6589 49.7657 14.6346 50.6673C14.7931 50.8136 14.9275 50.9381 14.9334 50.944C14.9391 50.9499 15.0255 51.0266 15.1254 51.1144C15.2251 51.2022 15.3115 51.2791 15.3174 51.2851C15.3231 51.2913 15.3903 51.349 15.4666 51.4134C15.5429 51.4778 15.6101 51.5355 15.616 51.5417C15.6219 51.5479 15.7947 51.6867 16 51.8503C16.2053 52.0138 16.3781 52.1532 16.384 52.1602C16.3959 52.1742 16.8055 52.4785 17.0318 52.6413C17.1123 52.6993 17.2132 52.7721 17.2558 52.8034C17.511 52.9897 18.3727 53.5573 18.7306 53.7746C19.1122 54.0064 19.1146 54.0078 19.3066 54.1139C19.4063 54.169 19.5311 54.2404 19.584 54.2727C19.6367 54.3049 19.7462 54.3658 19.8271 54.4082C19.9078 54.4506 19.9846 54.4937 19.9977 54.5041C20.0872 54.5758 21.8627 55.424 21.9233 55.424C21.9288 55.424 21.9927 55.4518 22.0654 55.4857C22.2421 55.5684 22.8028 55.7932 23.0934 55.8979C23.8161 56.1584 24.1281 56.2632 24.6826 56.4319C24.7237 56.4443 24.7958 56.467 24.8426 56.4823C24.8896 56.4976 25.0048 56.5306 25.0986 56.5557C25.1926 56.5808 25.3221 56.6156 25.3866 56.6329C26.1723 56.8443 27.1258 57.0503 27.84 57.1629C28.0335 57.1934 28.24 57.2269 28.2986 57.2374C28.4101 57.2572 28.9425 57.3256 29.2906 57.3646C29.535 57.392 29.9145 57.4231 30.3466 57.4512C30.5226 57.4627 30.7675 57.4792 30.8906 57.4879C31.268 57.5148 32.9779 57.5059 33.3866 57.475C33.9635 57.4313 34.7454 57.3653 34.9226 57.3452C35.2731 57.3056 35.4963 57.2764 35.6694 57.2478C35.7691 57.2313 36.0042 57.1927 36.192 57.162C37.1553 57.0048 38.3146 56.7428 39.1146 56.5017C39.7476 56.3109 40.3866 56.1038 40.6294 56.0109C40.6998 55.984 40.8293 55.9359 40.9174 55.9039C41.1167 55.8316 41.8583 55.5388 41.9734 55.487C42.2085 55.3811 42.3062 55.3387 42.3148 55.3387C42.3237 55.3387 42.4277 55.2907 42.9974 55.023C43.2931 54.884 43.7706 54.641 44.1022 54.4611C44.2287 54.3923 44.3359 54.336 44.3404 54.336C44.3448 54.336 44.4461 54.2784 44.5654 54.208C44.6846 54.1376 44.7854 54.08 44.7894 54.08C44.7935 54.08 44.9198 54.0049 45.0703 53.913C45.2209 53.8212 45.3967 53.7141 45.4614 53.675C45.6096 53.5852 45.8774 53.4121 46.1654 53.2201C46.4887 53.0044 46.7102 52.8516 47.0153 52.6331C47.0656 52.5971 47.4276 52.324 47.6736 52.1362C47.7464 52.0807 47.8664 51.9858 47.9404 51.9253C48.0142 51.8649 48.0891 51.8041 48.1066 51.7902C48.1653 51.7445 48.3731 51.5735 48.384 51.5623C48.3899 51.5562 48.4571 51.4999 48.5334 51.4371C49.1726 50.9107 50.574 49.5404 51.0574 48.9686C51.0948 48.9244 51.1697 48.8396 51.2237 48.7802C51.2778 48.7207 51.4216 48.5521 51.543 48.4054C51.6645 48.2587 51.776 48.1261 51.791 48.1109C51.8058 48.0955 51.8633 48.0234 51.9187 47.9509C51.974 47.8782 52.025 47.8139 52.0319 47.808C52.0387 47.8021 52.0911 47.7349 52.1484 47.6587C52.2057 47.5824 52.2782 47.4864 52.3095 47.4454C52.3409 47.4043 52.4337 47.2795 52.5158 47.168C52.5979 47.0565 52.7213 46.8892 52.7899 46.7963C52.9317 46.6042 53.4238 45.8696 53.568 45.6347C53.6207 45.5487 53.6837 45.4482 53.7077 45.4112C53.7846 45.293 54.1654 44.6508 54.1654 44.6395C54.1654 44.6335 54.1879 44.5927 54.2154 44.5489C54.3951 44.2633 54.8629 43.3488 55.1834 42.656C56.4197 39.9838 57.2146 36.9218 57.4287 34.0054C57.4422 33.8235 57.4607 33.5739 57.47 33.4506C57.5125 32.8872 57.5151 31.1981 57.4744 30.624C57.3879 29.4026 57.3216 28.7948 57.1845 27.968C57.168 27.8683 57.1436 27.7194 57.1301 27.6374C56.8163 25.7186 56.08 23.321 55.2598 21.5466C55.2137 21.4469 55.1526 21.3125 55.1242 21.248C55.0556 21.0928 54.57 20.1203 54.4796 19.9574C54.4406 19.887 54.362 19.743 54.3048 19.6374C54.2477 19.5318 54.1641 19.3852 54.1192 19.3116C54.0741 19.2382 54.0374 19.1735 54.0374 19.1683C54.0374 19.1629 53.9592 19.0311 53.8637 18.8753C53.7682 18.7195 53.6588 18.5392 53.6204 18.4746C53.3798 18.0702 52.5162 16.8309 52.223 16.4694C52.1801 16.4165 52.0506 16.2533 51.935 16.1066C51.7567 15.8802 51.5365 15.6113 51.4986 15.5734C51.4927 15.5675 51.4437 15.5099 51.3894 15.4454C51.1496 15.1596 51.1021 15.1063 50.6758 14.6464C50.1439 14.0722 49.2579 13.2106 48.8266 12.8479C48.7745 12.804 48.6367 12.6861 48.5206 12.5859C48.199 12.3086 47.8961 12.0645 47.52 11.7796C47.3322 11.6374 47.1663 11.5106 47.1514 11.4978C47.0638 11.4231 46.3872 10.957 45.9936 10.7001C45.4606 10.3522 45.5219 10.3909 45.1946 10.1954C45.0538 10.1111 44.8896 10.0108 44.8297 9.97225C44.7698 9.93385 44.6546 9.8678 44.5737 9.82569C44.4928 9.78358 44.4123 9.74006 44.3946 9.72892C44.2409 9.63228 43.3517 9.17455 42.9334 8.97692C41.6795 8.38441 40.32 7.8719 38.9866 7.48892C37.8716 7.16854 36.0584 6.80438 35.1055 6.70927C35.0241 6.70108 34.9377 6.6911 34.9135 6.687C34.2432 6.57398 31.9203 6.4959 30.8129 6.54914ZM33.2906 10.6669C46.6021 11.4416 55.9155 24.0178 52.7465 36.9386C49.8821 48.6176 37.8061 55.5996 26.2506 52.2578C14.3747 48.8233 7.93319 36.0127 12.2565 24.4266C15.4906 15.7599 24.0942 10.1316 33.2906 10.6669ZM31.6356 16.4771C31.6307 16.4814 31.4922 16.4908 31.328 16.4979C30.0502 16.5539 28.604 16.8336 27.3194 17.2731C26.9622 17.3955 26.2444 17.6776 26.209 17.7096C26.1979 17.7197 26.1747 17.728 26.1577 17.728C26.1123 17.728 25.0984 18.235 24.8106 18.4016C24.6757 18.4796 24.5111 18.575 24.4448 18.6134C23.1839 19.3443 21.6768 20.639 20.6685 21.8577C19.6879 23.0428 19.0351 24.1092 18.358 25.632C17.296 28.0206 16.8881 31.0693 17.2703 33.7614C17.6703 36.5791 18.735 39.0467 20.5096 41.269C20.7785 41.6058 20.7822 41.61 21.152 42.0149C22.0356 42.9822 23.2694 44.005 24.288 44.6148C25.0071 45.0453 25.4913 45.2996 26.1654 45.6009C26.5535 45.7744 27.2864 46.0508 27.6319 46.1541C27.7288 46.1831 27.8895 46.2313 27.9894 46.2614C33.0607 47.7913 38.7891 46.3173 42.6246 42.496C45.8396 39.2928 47.5166 34.6402 47.0495 30.2186C46.7167 27.0669 45.5822 24.3125 43.6405 21.9414C42.9115 21.0513 41.803 19.9934 41.024 19.444C40.9595 19.3986 40.9019 19.3554 40.896 19.3484C40.7628 19.1872 39.4596 18.3955 38.72 18.0264C36.6851 17.0108 34.3721 16.4694 32.0684 16.4694C31.8353 16.4694 31.6405 16.4729 31.6356 16.4771ZM25.5894 21.599C27.9104 21.9879 29.1754 24.4334 28.1389 26.528C27.1706 28.4849 24.6203 29.0537 22.88 27.7011C21.3335 26.4992 21.1096 24.2729 22.3839 22.7676C23.1521 21.8602 24.4105 21.4015 25.5894 21.599Z" fill="#23A49C"/>
<path fill-rule="evenodd" clip-rule="evenodd" d="M17.1195 16.8586L16.9494 17.0346L17.1254 16.8645C17.2221 16.7709 17.3014 16.6917 17.3014 16.6885C17.3014 16.6729 17.2776 16.6952 17.1195 16.8586ZM24.9334 21.5622C24.9832 21.5667 25.0648 21.5667 25.1146 21.5622C25.1645 21.5577 25.1237 21.5542 25.024 21.5542C24.9243 21.5542 24.8835 21.5577 24.9334 21.5622ZM22.5482 22.5866L22.4746 22.6666L22.5546 22.5931C22.6291 22.5247 22.6445 22.5066 22.6282 22.5066C22.6246 22.5066 22.5887 22.5427 22.5482 22.5866ZM21.5533 24.992C21.5534 25.0624 21.5574 25.0886 21.5621 25.0502C21.5668 25.012 21.5667 24.9544 21.5619 24.9222C21.557 24.8902 21.5531 24.9216 21.5533 24.992ZM10.9092 31.872C10.9092 31.9953 10.9128 32.0456 10.9171 31.984C10.9213 31.9224 10.9213 31.8216 10.9171 31.76C10.9128 31.6984 10.9092 31.7487 10.9092 31.872ZM47.1355 46.8746L46.9654 47.0506L47.1414 46.8805C47.3048 46.7224 47.3271 46.6986 47.3115 46.6986C47.3083 46.6986 47.2291 46.7778 47.1355 46.8746ZM32.016 53.0931C32.0776 53.0973 32.1784 53.0973 32.24 53.0931C32.3016 53.0888 32.2513 53.0852 32.128 53.0852C32.0047 53.0852 31.9544 53.0888 32.016 53.0931Z" fill="#73C3C0"/>
<path fill-rule="evenodd" clip-rule="evenodd" d="M17.1142 31.9786C17.1142 32.0197 17.1187 32.0365 17.1241 32.016C17.1293 31.9955 17.1293 31.9619 17.1241 31.9414C17.1187 31.9208 17.1142 31.9375 17.1142 31.9786Z" fill="#A8D8D6"/>
<path fill-rule="evenodd" clip-rule="evenodd" d="M10.9078 31.552C10.9078 31.6165 10.9118 31.6429 10.9166 31.6106C10.9215 31.5784 10.9215 31.5256 10.9166 31.4934C10.9118 31.4611 10.9078 31.4875 10.9078 31.552ZM10.9074 32.1814C10.9077 32.24 10.9118 32.2615 10.9166 32.229C10.9216 32.1966 10.9215 32.1486 10.9164 32.1224C10.9113 32.0961 10.9073 32.1226 10.9074 32.1814ZM31.771 53.0926C31.8034 53.0976 31.8514 53.0975 31.8777 53.0924C31.9039 53.0872 31.8774 53.0833 31.8186 53.0834C31.76 53.0837 31.7385 53.0878 31.771 53.0926ZM32.3894 53.0926C32.4217 53.0975 32.4744 53.0975 32.5066 53.0926C32.5389 53.0878 32.5125 53.0838 32.448 53.0838C32.3835 53.0838 32.3571 53.0878 32.3894 53.0926Z" fill="#50B6B4"/>
</g>
<defs>
<clipPath id="clip0_514_70584">
<rect width="51.2" height="51.2" fill="white" transform="translate(6.39999 6.40002)"/>
</clipPath>
</defs>
</svg>
