<svg width="64" height="64" viewBox="0 0 64 64" fill="none" xmlns="http://www.w3.org/2000/svg">
<path d="M32 58C46.3594 58 58 46.3594 58 32C58 17.6406 46.3594 6 32 6C17.6406 6 6 17.6406 6 32C6 46.3594 17.6406 58 32 58Z" fill="#125AED"/>
<path d="M32 58C46.3594 58 58 46.3594 58 32C58 17.6406 46.3594 6 32 6C17.6406 6 6 17.6406 6 32C6 46.3594 17.6406 58 32 58Z" fill="white" fill-opacity="0.05"/>
<path d="M31.9891 10.9568C20.3607 10.9568 10.9427 20.3835 10.9427 32.0032C10.9427 43.6228 20.3695 53.0495 31.9891 53.0495C43.6087 53.0495 53.0355 43.6228 53.0355 32.0032C53.0355 20.3835 43.6174 10.9568 31.9891 10.9568ZM41.6255 29.3735L34.6188 22.3667L37.1524 19.8331C39.0832 17.9024 42.2196 17.9024 44.1591 19.8331C46.0899 21.7639 46.0899 24.9003 44.1591 26.8398L41.6255 29.3735ZM44.1591 37.1577C46.0899 39.0885 46.0899 42.2249 44.1591 44.1644C42.2283 46.0952 39.0919 46.0952 37.1524 44.1644L34.6188 41.6308L41.6255 34.6241L44.1591 37.1577ZM31.9891 39.0011L28.4945 35.5065H31.9891L24.9998 32.0119L24.9824 31.9944L31.9891 24.9877L35.4924 28.4911H31.9891L38.9871 31.9944L31.9804 39.0011H31.9891ZM19.8191 44.1732C17.8883 42.2424 17.8883 39.106 19.8191 37.1665L22.3614 34.6241L29.3681 41.6308L26.8258 44.1732C24.895 46.104 21.7586 46.104 19.8191 44.1732ZM19.8191 26.8311C17.8883 24.9003 17.8883 21.7639 19.8191 19.8244C21.7498 17.8936 24.8863 17.8936 26.8258 19.8244L29.3681 22.3667L22.3614 29.3735L19.8191 26.8311ZM37.1087 15.4386C36.1739 15.858 35.3002 16.4433 34.5314 17.2122L31.9978 19.7458L29.4642 17.2122C28.6954 16.4433 27.8217 15.858 26.8869 15.4386C28.5032 14.9407 30.2156 14.6698 31.9978 14.6698C33.7801 14.6698 35.4924 14.9407 37.1174 15.4386H37.1087ZM15.4333 26.8748C15.8527 27.8096 16.438 28.692 17.2068 29.4608L19.7404 31.9944L17.2068 34.528C16.438 35.2968 15.8527 36.1792 15.4333 37.1228C14.9353 35.5065 14.6645 33.7854 14.6645 32.0032C14.6645 30.2209 14.9353 28.4998 15.4333 26.8748ZM26.8782 48.5677C27.813 48.1483 28.6954 47.563 29.473 46.7941L32.0066 44.2605L34.5402 46.7941C35.309 47.563 36.1914 48.1483 37.1262 48.5677C35.5099 49.0657 33.7888 49.3365 31.9978 49.3365C30.2068 49.3365 28.4945 49.0657 26.8782 48.5677ZM48.5711 37.114C48.1517 36.1792 47.5664 35.3056 46.7976 34.5368L44.264 32.0032L46.7976 29.4696C47.5664 28.7007 48.1517 27.8271 48.5711 26.8923C49.0691 28.5085 49.3399 30.2296 49.3399 32.0119C49.3399 33.7941 49.0691 35.5065 48.5711 37.1228V37.114Z" fill="white"/>
</svg>
